<svg width="24" height="24" viewBox="0 0 24 24" fill="none" xmlns="http://www.w3.org/2000/svg">
<g id="Filled">
<path id="Vector" d="M10.95 13.2L9.5 11.75C9.31667 11.5667 9.08333 11.475 8.8 11.475C8.51667 11.475 8.28333 11.5667 8.1 11.75C7.91667 11.9333 7.825 12.1667 7.825 12.45C7.825 12.7333 7.91667 12.9667 8.1 13.15L10.25 15.3C10.45 15.5 10.6833 15.6 10.95 15.6C11.2167 15.6 11.45 15.5 11.65 15.3L15.9 11.05C16.1 10.85 16.1958 10.6125 16.1875 10.3375C16.1792 10.0625 16.075 9.83333 15.875 9.65C15.675 9.46667 15.4375 9.37917 15.1625 9.3875C14.8875 9.39583 14.6583 9.49167 14.475 9.675L10.95 13.2ZM12 22C10.6167 22 9.31667 21.7375 8.1 21.2125C6.88333 20.6875 5.825 19.975 4.925 19.075C4.025 18.175 3.3125 17.1167 2.7875 15.9C2.2625 14.6833 2 13.3833 2 12C2 10.6167 2.2625 9.31667 2.7875 8.1C3.3125 6.88333 4.025 5.825 4.925 4.925C5.825 4.025 6.88333 3.3125 8.1 2.7875C9.31667 2.2625 10.6167 2 12 2C13.3833 2 14.6833 2.2625 15.9 2.7875C17.1167 3.3125 18.175 4.025 19.075 4.925C19.975 5.825 20.6875 6.88333 21.2125 8.1C21.7375 9.31667 22 10.6167 22 12C22 13.3833 21.7375 14.6833 21.2125 15.9C20.6875 17.1167 19.975 18.175 19.075 19.075C18.175 19.975 17.1167 20.6875 15.9 21.2125C14.6833 21.7375 13.3833 22 12 22ZM12 20C14.2333 20 16.125 19.225 17.675 17.675C19.225 16.125 20 14.2333 20 12C20 9.76667 19.225 7.875 17.675 6.325C16.125 4.775 14.2333 4 12 4C9.76667 4 7.875 4.775 6.325 6.325C4.775 7.875 4 9.76667 4 12C4 14.2333 4.775 16.125 6.325 17.675C7.875 19.225 9.76667 20 12 20Z" fill="#05C392"/>
</g>
</svg>
